<svg width="1141" height="643" viewBox="0 0 1141 643" fill="none" xmlns="http://www.w3.org/2000/svg">
<path id="mypath" d="M164.92 37.6567V8.86938C164.92 4.4511 168.502 0.869385 172.92 0.869385H1044.68C1049.1 0.869385 1052.68 4.45111 1052.68 8.86938V37.6567" stroke="#7E8F9A" stroke-width="0.5" stroke-linecap="round" stroke-linejoin="round"/>
<path d="M20.4756 387.136H9C4.58172 387.136 1 383.555 1 379.136L1 139.789C1 135.371 4.58172 131.789 9 131.789H20.4756" stroke="#7E8F9A" stroke-width="0.5" stroke-linecap="round" stroke-linejoin="round"/>
<path d="M23.647 387.517C23.9413 387.319 23.9413 386.886 23.647 386.688L20.1731 384.348C19.841 384.124 19.3938 384.362 19.3938 384.763V389.443C19.3938 389.843 19.841 390.081 20.1731 389.857L23.647 387.517Z" fill="#7D8E99"/>
<path d="M346.533 639.238H334.676C330.257 639.238 326.676 635.656 326.676 631.238L326.676 148.445C326.676 144.027 330.258 140.445 334.676 140.445H354.807" stroke="#7E8F9A" stroke-width="0.5" stroke-linecap="round" stroke-linejoin="round"/>
<path d="M624.921 387.136H636.778C641.197 387.136 644.778 383.555 644.778 379.136V86.772C644.778 82.3537 641.197 78.772 636.778 78.772H479.235" stroke="#7E8F9A" stroke-width="0.5" stroke-linecap="round" stroke-linejoin="round"/>
<path d="M621.59 387.517C621.296 387.319 621.296 386.886 621.59 386.688L625.064 384.348C625.396 384.124 625.844 384.362 625.844 384.763V389.443C625.844 389.843 625.396 390.081 625.064 389.857L621.59 387.517Z" fill="#7D8E99"/>
<path d="M350.405 639.619C350.699 639.42 350.699 638.987 350.405 638.789L346.931 636.449C346.599 636.226 346.152 636.464 346.152 636.864V641.544C346.152 641.944 346.599 642.182 346.931 641.959L350.405 639.619Z" fill="#7D8E99"/>
<path d="M174.117 454.219H171.297C166.879 454.219 163.297 450.637 163.297 446.219L163.297 95.0017" stroke="#7E8F9A" stroke-width="0.5" stroke-linecap="round" stroke-linejoin="round"/>
<path d="M164.505 38.123C164.703 38.4172 165.136 38.4172 165.334 38.123L167.674 34.6491C167.898 34.317 167.66 33.8697 167.26 33.8697H162.58C162.179 33.8697 161.941 34.317 162.165 34.6491L164.505 38.123Z" fill="#7D8E99"/>
<path d="M24.188 132.17C24.4823 131.972 24.4823 131.539 24.188 131.341L20.7141 129.001C20.382 128.777 19.9348 129.015 19.9348 129.415V134.095C19.9348 134.496 20.382 134.734 20.7141 134.51L24.188 132.17Z" fill="#7D8E99"/>
<path d="M1052.3 38.123C1052.5 38.4172 1052.93 38.4172 1053.13 38.123L1055.47 34.6491C1055.7 34.317 1055.46 33.8697 1055.06 33.8697H1050.38C1049.98 33.8697 1049.74 34.317 1049.96 34.6491L1052.3 38.123Z" fill="#7D8E99"/>
<path d="M720.643 38.123C720.841 38.4172 721.274 38.4172 721.472 38.123L723.812 34.6491C724.036 34.317 723.798 33.8697 723.397 33.8697H718.717C718.317 33.8697 718.079 34.317 718.303 34.6491L720.643 38.123Z" fill="#7D8E99"/>
<path d="M721.057 1.4104V37.6567" stroke="#7E8F9A" stroke-width="0.5" stroke-linecap="round" stroke-linejoin="round"/>
<path d="M879.694 38.123C879.893 38.4172 880.326 38.4172 880.524 38.123L882.864 34.6491C883.088 34.317 882.85 33.8697 882.449 33.8697H877.769C877.369 33.8697 877.131 34.317 877.355 34.6491L879.694 38.123Z" fill="#7D8E99"/>
<path d="M880.109 1.4104V37.6567" stroke="#7E8F9A" stroke-width="0.5" stroke-linecap="round" stroke-linejoin="round"/>
<path d="M414.443 38.123C414.641 38.4172 415.074 38.4172 415.272 38.123L417.612 34.6491C417.836 34.317 417.598 33.8697 417.198 33.8697H412.518C412.117 33.8697 411.879 34.317 412.103 34.6491L414.443 38.123Z" fill="#7D8E99"/>
<path d="M414.857 20.345V37.6567" stroke="#7E8F9A" stroke-width="0.5" stroke-linecap="round" stroke-linejoin="round"/>
<path d="M24.1876 196.582C24.4818 196.383 24.4818 195.95 24.1876 195.752L20.7136 193.412C20.3815 193.188 19.9343 193.426 19.9343 193.827V198.507C19.9343 198.907 20.3815 199.145 20.7136 198.921L24.1876 196.582Z" fill="#7D8E99"/>
<path d="M9.11475 196.167H23.7215" stroke="#7E8F9A" stroke-width="0.5" stroke-linecap="round" stroke-linejoin="round"/>
<path d="M349.864 321.009C350.158 320.811 350.158 320.378 349.864 320.18L346.39 317.84C346.058 317.616 345.611 317.854 345.611 318.255V322.934C345.611 323.335 346.058 323.573 346.39 323.349L349.864 321.009Z" fill="#7D8E99"/>
<path d="M334.791 320.595H349.397" stroke="#7E8F9A" stroke-width="0.5" stroke-linecap="round" stroke-linejoin="round"/>
<path d="M349.864 384.846C350.158 384.648 350.158 384.215 349.864 384.017L346.39 381.677C346.058 381.453 345.611 381.691 345.611 382.091V386.771C345.611 387.172 346.058 387.41 346.39 387.186L349.864 384.846Z" fill="#7D8E99"/>
<path d="M334.791 384.431H349.397" stroke="#7E8F9A" stroke-width="0.5" stroke-linecap="round" stroke-linejoin="round"/>
<path d="M349.864 448.683C350.158 448.485 350.158 448.052 349.864 447.854L346.39 445.514C346.058 445.29 345.611 445.528 345.611 445.928V450.608C345.611 451.009 346.058 451.247 346.39 451.023L349.864 448.683Z" fill="#7D8E99"/>
<path d="M334.791 448.268H349.397" stroke="#7E8F9A" stroke-width="0.5" stroke-linecap="round" stroke-linejoin="round"/>
<path d="M349.864 512.52C350.158 512.322 350.158 511.889 349.864 511.69L346.39 509.351C346.058 509.127 345.611 509.365 345.611 509.765V514.445C345.611 514.846 346.058 515.084 346.39 514.86L349.864 512.52Z" fill="#7D8E99"/>
<path d="M334.791 512.105H349.397" stroke="#7E8F9A" stroke-width="0.5" stroke-linecap="round" stroke-linejoin="round"/>
<path d="M25.2696 260.418C25.5638 260.22 25.5638 259.787 25.2696 259.589L21.7957 257.249C21.4636 257.025 21.0163 257.263 21.0163 257.664V262.344C21.0163 262.744 21.4636 262.982 21.7957 262.758L25.2696 260.418Z" fill="#7D8E99"/>
<path d="M9.65576 260.004H24.8035" stroke="#7E8F9A" stroke-width="0.5" stroke-linecap="round" stroke-linejoin="round"/>
<path d="M349.864 257.172C350.158 256.974 350.158 256.541 349.864 256.343L346.39 254.003C346.058 253.779 345.611 254.017 345.611 254.418V259.098C345.611 259.498 346.058 259.736 346.39 259.512L349.864 257.172Z" fill="#7D8E99"/>
<path d="M334.25 256.758H349.397" stroke="#7E8F9A" stroke-width="0.5" stroke-linecap="round" stroke-linejoin="round"/>
<path d="M621.59 196.582C621.296 196.383 621.296 195.95 621.59 195.752L625.064 193.412C625.396 193.188 625.844 193.426 625.844 193.827V198.507C625.844 198.907 625.396 199.145 625.064 198.921L621.59 196.582Z" fill="#7D8E99"/>
<path d="M637.204 196.167H622.056" stroke="#7E8F9A" stroke-width="0.5" stroke-linecap="round" stroke-linejoin="round"/>
<path d="M621.59 260.418C621.296 260.22 621.296 259.787 621.59 259.589L625.064 257.249C625.396 257.025 625.844 257.263 625.844 257.664V262.344C625.844 262.744 625.396 262.982 625.064 262.758L621.59 260.418Z" fill="#7D8E99"/>
<path d="M637.204 260.004H622.056" stroke="#7E8F9A" stroke-width="0.5" stroke-linecap="round" stroke-linejoin="round"/>
<path d="M621.59 324.255C621.296 324.057 621.296 323.624 621.59 323.426L625.064 321.086C625.396 320.862 625.844 321.1 625.844 321.501V326.18C625.844 326.581 625.396 326.819 625.064 326.595L621.59 324.255Z" fill="#7D8E99"/>
<path d="M24.1876 326.419C24.4818 326.221 24.4818 325.788 24.1876 325.59L20.7136 323.25C20.3815 323.026 19.9343 323.264 19.9343 323.665V328.344C19.9343 328.745 20.3815 328.983 20.7136 328.759L24.1876 326.419Z" fill="#7D8E99"/>
<path d="M23.7215 326.004C23.7215 326.004 20.7366 326.004 17.1161 326.004C12.6979 326.004 9.11475 322.423 9.11475 318.004L9.11475 131.789" stroke="#7E8F9A" stroke-width="0.5" stroke-linecap="round" stroke-linejoin="round"/>
<path d="M349.397 575.401C349.397 575.401 346.407 575.401 342.782 575.401C338.368 575.401 334.786 571.825 334.781 567.411L334.25 140.445" stroke="#7E8F9A" stroke-width="0.5" stroke-linecap="round" stroke-linejoin="round"/>
<path d="M350.945 575.782C351.24 575.584 351.24 575.151 350.945 574.952L347.471 572.612C347.139 572.389 346.692 572.627 346.692 573.027V577.707C346.692 578.107 347.139 578.345 347.471 578.122L350.945 575.782Z" fill="#7D8E99"/>
<path d="M622.056 324.381C622.056 324.381 625.051 324.381 628.679 324.381C633.091 324.381 636.671 320.81 636.681 316.399L637.204 78.7719" stroke="#7E8F9A" stroke-width="0.5" stroke-linecap="round" stroke-linejoin="round"/>
<path d="M951.594 263.664C951.3 263.466 951.3 263.033 951.594 262.835L955.068 260.495C955.4 260.271 955.847 260.509 955.847 260.91V265.59C955.847 265.99 955.4 266.228 955.068 266.004L951.594 263.664Z" fill="#7D8E99"/>
<path d="M967.208 263.25H952.06" stroke="#7E8F9A" stroke-width="0.5" stroke-linecap="round" stroke-linejoin="round"/>
<path d="M951.594 199.827C951.3 199.629 951.3 199.196 951.594 198.998L955.068 196.658C955.4 196.434 955.847 196.672 955.847 197.073V201.753C955.847 202.153 955.4 202.391 955.068 202.167L951.594 199.827Z" fill="#7D8E99"/>
<path d="M967.208 199.413H952.06" stroke="#7E8F9A" stroke-width="0.5" stroke-linecap="round" stroke-linejoin="round"/>
<path d="M951.594 135.991C951.3 135.792 951.3 135.359 951.594 135.161L955.068 132.821C955.4 132.598 955.847 132.835 955.847 133.236V137.916C955.847 138.316 955.4 138.554 955.068 138.331L951.594 135.991Z" fill="#7D8E99"/>
<path d="M967.208 135.576H952.06" stroke="#7E8F9A" stroke-width="0.5" stroke-linecap="round" stroke-linejoin="round"/>
<path d="M951.594 327.501C951.3 327.303 951.3 326.87 951.594 326.672L955.068 324.332C955.4 324.108 955.847 324.346 955.847 324.746V329.426C955.847 329.827 955.4 330.065 955.068 329.841L951.594 327.501Z" fill="#7D8E99"/>
<path d="M952.06 326.545C952.06 326.545 955.055 326.545 958.683 326.545C963.094 326.545 966.675 322.974 966.684 318.563L967.191 81.3791C967.2 76.9542 963.616 73.362 959.191 73.362H943.404" stroke="#7E8F9A" stroke-width="0.5" stroke-linecap="round" stroke-linejoin="round"/>
<path d="M1124.71 199.827C1124.42 199.629 1124.42 199.196 1124.71 198.998L1128.19 196.658C1128.52 196.434 1128.96 196.672 1128.96 197.073V201.753C1128.96 202.153 1128.52 202.391 1128.19 202.167L1124.71 199.827Z" fill="#7D8E99"/>
<path d="M1140.33 199.413H1125.18" stroke="#7E8F9A" stroke-width="0.5" stroke-linecap="round" stroke-linejoin="round"/>
<path d="M1124.71 135.991C1124.42 135.792 1124.42 135.359 1124.71 135.161L1128.19 132.821C1128.52 132.598 1128.96 132.835 1128.96 133.236V137.916C1128.96 138.316 1128.52 138.554 1128.19 138.331L1124.71 135.991Z" fill="#7D8E99"/>
<path d="M1140.33 135.576H1125.18" stroke="#7E8F9A" stroke-width="0.5" stroke-linecap="round" stroke-linejoin="round"/>
<path d="M1124.71 261.5C1124.42 261.302 1124.42 260.869 1124.71 260.671L1128.19 258.331C1128.52 258.107 1128.96 258.345 1128.96 258.746V263.426C1128.96 263.826 1128.52 264.064 1128.19 263.84L1124.71 261.5Z" fill="#7D8E99"/>
<path d="M1125.18 261.627C1125.18 261.627 1128.17 261.627 1131.81 261.627C1136.22 261.627 1139.79 258.059 1139.81 253.65L1140.3 81.3851C1140.31 76.9578 1136.73 73.3621 1132.3 73.3621H1118.69" stroke="#7E8F9A" stroke-width="0.5" stroke-linecap="round" stroke-linejoin="round"/>
<path d="M484.645 140.445C484.645 140.445 485.655 140.445 487.127 140.445C491.525 140.445 495.101 136.894 495.128 132.495L495.465 78.772" stroke="#7E8F9A" stroke-width="0.5" stroke-linecap="round" stroke-linejoin="round"/>
<path d="M480.933 140.893C480.639 140.695 480.639 140.262 480.933 140.064L484.407 137.724C484.739 137.5 485.186 137.738 485.186 138.139V142.818C485.186 143.219 484.739 143.457 484.407 143.233L480.933 140.893Z" fill="#7D8E99"/>
<path d="M790.846 135.035C790.846 135.035 791.855 135.035 793.327 135.035C797.726 135.035 801.301 131.484 801.329 127.085L801.615 81.4122C801.643 76.9744 798.053 73.362 793.615 73.362H784.354" stroke="#7E8F9A" stroke-width="0.5" stroke-linecap="round" stroke-linejoin="round"/>
<path d="M787.133 135.416C786.839 135.218 786.839 134.785 787.133 134.587L790.607 132.247C790.939 132.023 791.386 132.261 791.386 132.661V137.341C791.386 137.742 790.939 137.98 790.607 137.756L787.133 135.416Z" fill="#7D8E99"/>
<path d="M805.97 391.464C805.97 391.464 804.114 391.464 801.493 391.464C797.103 391.464 793.533 387.926 793.493 383.536L793.082 337.863C793.042 333.417 796.635 329.791 801.082 329.791H816.813" stroke="#7E8F9A" stroke-width="0.5" stroke-linecap="round" stroke-linejoin="round"/>
<path d="M807.443 390.811C807.766 390.617 807.766 390.148 807.443 389.953L803.505 387.591C803.171 387.391 802.747 387.631 802.747 388.019V392.745C802.747 393.134 803.171 393.374 803.505 393.174L807.443 390.811Z" fill="#7D8E99"/>
<path d="M174.583 199.827C174.877 199.629 174.877 199.196 174.583 198.998L171.109 196.658C170.777 196.434 170.33 196.672 170.33 197.073V201.753C170.33 202.153 170.777 202.391 171.109 202.167L174.583 199.827Z" fill="#7D8E99"/>
<path d="M163.297 199.413H171.953" stroke="#7E8F9A" stroke-width="0.5" stroke-linecap="round" stroke-linejoin="round"/>
<path d="M154.175 132.745C153.881 132.547 153.881 132.113 154.175 131.915L157.649 129.575C157.981 129.352 158.428 129.59 158.428 129.99V134.67C158.428 135.07 157.981 135.308 157.649 135.085L154.175 132.745Z" fill="#7D8E99"/>
<path d="M163.297 132.33H156.805" stroke="#7E8F9A" stroke-width="0.5" stroke-linecap="round" stroke-linejoin="round"/>
<path d="M174.583 263.664C174.877 263.466 174.877 263.033 174.583 262.835L171.109 260.495C170.777 260.271 170.33 260.509 170.33 260.91V265.59C170.33 265.99 170.777 266.228 171.109 266.004L174.583 263.664Z" fill="#7D8E99"/>
<path d="M163.297 263.25H171.953" stroke="#7E8F9A" stroke-width="0.5" stroke-linecap="round" stroke-linejoin="round"/>
<path d="M174.583 327.501C174.877 327.303 174.877 326.87 174.583 326.672L171.109 324.332C170.777 324.108 170.33 324.346 170.33 324.746V329.426C170.33 329.827 170.777 330.065 171.109 329.841L174.583 327.501Z" fill="#7D8E99"/>
<path d="M163.297 327.086H171.953" stroke="#7E8F9A" stroke-width="0.5" stroke-linecap="round" stroke-linejoin="round"/>
<path d="M174.583 391.338C174.877 391.14 174.877 390.707 174.583 390.509L171.109 388.169C170.777 387.945 170.33 388.183 170.33 388.583V393.263C170.33 393.664 170.777 393.902 171.109 393.678L174.583 391.338Z" fill="#7D8E99"/>
<path d="M163.297 390.923H171.953" stroke="#7E8F9A" stroke-width="0.5" stroke-linecap="round" stroke-linejoin="round"/>
<path d="M174.583 455.175C174.877 454.977 174.877 454.544 174.583 454.345L171.109 452.006C170.777 451.782 170.33 452.02 170.33 452.42V457.1C170.33 457.501 170.777 457.739 171.109 457.515L174.583 455.175Z" fill="#7D8E99"/>
</svg>
