<svg width="150" height="151" viewBox="0 0 150 151" fill="none" xmlns="http://www.w3.org/2000/svg">
<path opacity="0.6" fill-rule="evenodd" clip-rule="evenodd" d="M0.501465 3.69786C0.501465 5.24777 1.75757 6.50387 3.30805 6.50387C4.85739 6.50387 6.11349 5.24777 6.11349 3.69786C6.11349 2.14852 4.85739 0.891846 3.30805 0.891846C1.75757 0.891846 0.501465 2.14852 0.501465 3.69786ZM88.7845 6.50387C87.234 6.50387 85.9779 5.24777 85.9779 3.69786C85.9779 2.14852 87.234 0.891846 88.7845 0.891846C90.3338 0.891846 91.5899 2.14852 91.5899 3.69786C91.5899 5.24777 90.3338 6.50387 88.7845 6.50387ZM117.897 6.69519C116.294 6.69519 114.995 5.39627 114.995 3.79352C114.995 2.19136 116.294 0.891846 117.897 0.891846C119.499 0.891846 120.798 2.19136 120.798 3.79352C120.798 5.39627 119.499 6.69519 117.897 6.69519ZM85.9779 32.8103C85.9779 34.413 87.2768 35.7119 88.8802 35.7119C90.4823 35.7119 91.7812 34.413 91.7812 32.8103C91.7812 31.2081 90.4823 29.9086 88.8802 29.9086C87.2768 29.9086 85.9779 31.2081 85.9779 32.8103ZM85.9779 61.827C85.9779 63.4298 87.2768 64.7287 88.8802 64.7287C90.4823 64.7287 91.7812 63.4298 91.7812 61.827C91.7812 60.2248 90.4823 58.9253 88.8802 58.9253C87.2768 58.9253 85.9779 60.2248 85.9779 61.827ZM114.995 32.8103C114.995 34.413 116.294 35.7119 117.897 35.7119C119.499 35.7119 120.798 34.413 120.798 32.8103C120.798 31.2081 119.499 29.9086 117.897 29.9086C116.294 29.9086 114.995 31.2081 114.995 32.8103ZM117.897 64.7287C116.294 64.7287 114.995 63.4298 114.995 61.827C114.995 60.2248 116.294 58.9253 117.897 58.9253C119.499 58.9253 120.798 60.2248 120.798 61.827C120.798 63.4298 119.499 64.7287 117.897 64.7287ZM144.011 3.79352C144.011 5.39627 145.31 6.69519 146.914 6.69519C148.516 6.69519 149.815 5.39627 149.815 3.79352C149.815 2.19136 148.516 0.891846 146.914 0.891846C145.31 0.891846 144.011 2.19136 144.011 3.79352ZM146.914 35.7119C145.31 35.7119 144.011 34.413 144.011 32.8103C144.011 31.2081 145.31 29.9086 146.914 29.9086C148.516 29.9086 149.815 31.2081 149.815 32.8103C149.815 34.413 148.516 35.7119 146.914 35.7119ZM144.011 61.827C144.011 63.4298 145.31 64.7287 146.914 64.7287C148.516 64.7287 149.815 63.4298 149.815 61.827C149.815 60.2248 148.516 58.9253 146.914 58.9253C145.31 58.9253 144.011 60.2248 144.011 61.827ZM0.501465 89.1743C0.501465 90.7242 1.75757 91.9803 3.30805 91.9803C4.85739 91.9803 6.11349 90.7242 6.11349 89.1743C6.11349 87.6249 4.85739 86.3683 3.30805 86.3683C1.75757 86.3683 0.501465 87.6249 0.501465 89.1743ZM29.5182 89.27C29.5182 90.8727 30.8171 92.1716 32.4205 92.1716C34.0226 92.1716 35.3216 90.8727 35.3216 89.27C35.3216 87.6678 34.0226 86.3683 32.4205 86.3683C30.8171 86.3683 29.5182 87.6678 29.5182 89.27ZM3.40373 121.188C1.80039 121.188 0.501465 119.889 0.501465 118.287C0.501465 116.685 1.80039 115.385 3.40373 115.385C5.00589 115.385 6.30481 116.685 6.30481 118.287C6.30481 119.889 5.00589 121.188 3.40373 121.188ZM3.40373 150.205C1.80039 150.205 0.501465 148.906 0.501465 147.303C0.501465 145.701 1.80039 144.402 3.40373 144.402C5.00589 144.402 6.30481 145.701 6.30481 147.303C6.30481 148.906 5.00589 150.205 3.40373 150.205ZM32.4205 121.188C30.8171 121.188 29.5182 119.889 29.5182 118.287C29.5182 116.685 30.8171 115.385 32.4205 115.385C34.0226 115.385 35.3216 116.685 35.3216 118.287C35.3216 119.889 34.0226 121.188 32.4205 121.188ZM29.5182 147.303C29.5182 148.906 30.8171 150.205 32.4205 150.205C34.0226 150.205 35.3216 148.906 35.3216 147.303C35.3216 145.701 34.0226 144.402 32.4205 144.402C30.8171 144.402 29.5182 145.701 29.5182 147.303ZM61.4372 92.1716C59.8339 92.1716 58.5349 90.8727 58.5349 89.27C58.5349 87.6678 59.8339 86.3683 61.4372 86.3683C63.0394 86.3683 64.3383 87.6678 64.3383 89.27C64.3383 90.8727 63.0394 92.1716 61.4372 92.1716ZM58.5349 118.287C58.5349 119.889 59.8339 121.188 61.4372 121.188C63.0394 121.188 64.3383 119.889 64.3383 118.287C64.3383 116.685 63.0394 115.385 61.4372 115.385C59.8339 115.385 58.5349 116.685 58.5349 118.287ZM61.4372 150.205C59.8339 150.205 58.5349 148.906 58.5349 147.303C58.5349 145.701 59.8339 144.402 61.4372 144.402C63.0394 144.402 64.3383 145.701 64.3383 147.303C64.3383 148.906 63.0394 150.205 61.4372 150.205ZM29.5182 3.79352C29.5182 5.39627 30.8171 6.69519 32.4205 6.69519C34.0226 6.69519 35.3216 5.39627 35.3216 3.79352C35.3216 2.19136 34.0226 0.891846 32.4205 0.891846C30.8171 0.891846 29.5182 2.19136 29.5182 3.79352ZM3.40373 35.7119C1.80039 35.7119 0.501465 34.413 0.501465 32.8103C0.501465 31.2081 1.80039 29.9086 3.40373 29.9086C5.00589 29.9086 6.30481 31.2081 6.30481 32.8103C6.30481 34.413 5.00589 35.7119 3.40373 35.7119ZM3.40373 64.7287C1.80039 64.7287 0.501465 63.4298 0.501465 61.827C0.501465 60.2248 1.80039 58.9253 3.40373 58.9253C5.00589 58.9253 6.30481 60.2248 6.30481 61.827C6.30481 63.4298 5.00589 64.7287 3.40373 64.7287ZM32.4205 35.7119C30.8171 35.7119 29.5182 34.413 29.5182 32.8103C29.5182 31.2081 30.8171 29.9086 32.4205 29.9086C34.0226 29.9086 35.3216 31.2081 35.3216 32.8103C35.3216 34.413 34.0226 35.7119 32.4205 35.7119ZM29.5182 61.827C29.5182 63.4298 30.8171 64.7287 32.4205 64.7287C34.0226 64.7287 35.3216 63.4298 35.3216 61.827C35.3216 60.2248 34.0226 58.9253 32.4205 58.9253C30.8171 58.9253 29.5182 60.2248 29.5182 61.827ZM61.4372 6.69519C59.8339 6.69519 58.5349 5.39627 58.5349 3.79352C58.5349 2.19136 59.8339 0.891846 61.4372 0.891846C63.0394 0.891846 64.3383 2.19136 64.3383 3.79352C64.3383 5.39627 63.0394 6.69519 61.4372 6.69519ZM58.5349 32.8103C58.5349 34.413 59.8339 35.7119 61.4372 35.7119C63.0394 35.7119 64.3383 34.413 64.3383 32.8103C64.3383 31.2081 63.0394 29.9086 61.4372 29.9086C59.8339 29.9086 58.5349 31.2081 58.5349 32.8103ZM61.4372 64.7287C59.8339 64.7287 58.5349 63.4298 58.5349 61.827C58.5349 60.2248 59.8339 58.9253 61.4372 58.9253C63.0394 58.9253 64.3383 60.2248 64.3383 61.827C64.3383 63.4298 63.0394 64.7287 61.4372 64.7287ZM85.9779 89.1743C85.9779 90.7242 87.234 91.9803 88.7845 91.9803C90.3338 91.9803 91.5899 90.7242 91.5899 89.1743C91.5899 87.6249 90.3338 86.3683 88.7845 86.3683C87.234 86.3683 85.9779 87.6249 85.9779 89.1743ZM114.995 89.27C114.995 90.8727 116.294 92.1716 117.897 92.1716C119.499 92.1716 120.798 90.8727 120.798 89.27C120.798 87.6678 119.499 86.3683 117.897 86.3683C116.294 86.3683 114.995 87.6678 114.995 89.27ZM88.8802 121.188C87.2768 121.188 85.9779 119.889 85.9779 118.287C85.9779 116.685 87.2768 115.385 88.8802 115.385C90.4823 115.385 91.7812 116.685 91.7812 118.287C91.7812 119.889 90.4823 121.188 88.8802 121.188ZM88.8802 150.205C87.2768 150.205 85.9779 148.906 85.9779 147.303C85.9779 145.701 87.2768 144.402 88.8802 144.402C90.4823 144.402 91.7812 145.701 91.7812 147.303C91.7812 148.906 90.4823 150.205 88.8802 150.205ZM117.897 121.188C116.294 121.188 114.995 119.889 114.995 118.287C114.995 116.685 116.294 115.385 117.897 115.385C119.499 115.385 120.798 116.685 120.798 118.287C120.798 119.889 119.499 121.188 117.897 121.188ZM114.995 147.303C114.995 148.906 116.294 150.205 117.897 150.205C119.499 150.205 120.798 148.906 120.798 147.303C120.798 145.701 119.499 144.402 117.897 144.402C116.294 144.402 114.995 145.701 114.995 147.303ZM146.914 92.1716C145.31 92.1716 144.011 90.8727 144.011 89.27C144.011 87.6678 145.31 86.3683 146.914 86.3683C148.516 86.3683 149.815 87.6678 149.815 89.27C149.815 90.8727 148.516 92.1716 146.914 92.1716ZM144.011 118.287C144.011 119.889 145.31 121.188 146.914 121.188C148.516 121.188 149.815 119.889 149.815 118.287C149.815 116.685 148.516 115.385 146.914 115.385C145.31 115.385 144.011 116.685 144.011 118.287ZM146.914 150.205C145.31 150.205 144.011 148.906 144.011 147.303C144.011 145.701 145.31 144.402 146.914 144.402C148.516 144.402 149.815 145.701 149.815 147.303C149.815 148.906 148.516 150.205 146.914 150.205Z" fill="#47D6AD"/>
</svg>
