<svg width="216" height="36" viewBox="0 0 216 36" fill="none" xmlns="http://www.w3.org/2000/svg">
<mask id="mask0_14097_5086" style="mask-type:alpha" maskUnits="userSpaceOnUse" x="0" y="0" width="216" height="36">
<path d="M8.02919 10.3473V35.8921H0V10.3473H8.02919ZM214.065 10.326V15.4156L189.978 15.4233C189.423 15.4237 188.923 15.7484 188.7 16.2507C188.64 16.4184 188.604 16.5947 188.598 16.7728V18.969C188.604 19.11 188.621 19.2503 188.65 19.3887C188.758 20.0357 189.315 20.5161 189.978 20.5371H210.434C210.434 20.5766 212.48 20.4235 213.707 21.6492C215.496 23.4134 215.292 25.5813 215.292 27.4622V30.4249C215.139 32.975 214.73 34.3428 212.633 35.4292C211.917 35.8083 210.895 35.9322 205.167 35.8816L181.796 35.8609V30.765C181.796 30.765 205.882 30.7904 205.934 30.7702C206.668 30.7329 207.258 30.163 207.314 29.4392L207.366 27.0756C207.339 26.31 206.709 25.6998 205.934 25.69L187.268 25.6967C185.222 25.5658 183.637 25.5106 182.154 23.9567C180.569 22.2584 180.569 20.3168 180.569 18.5941V16.3876C180.569 13.648 181.592 11.9344 183.28 11.0245C184.302 10.4604 185.631 10.3406 191.104 10.3406L214.065 10.326ZM167.16 10.3154C172.127 10.3278 172.921 10.5481 173.665 10.8507C175.506 11.6215 177.091 13.7723 177.091 16.5181V35.8907C177.091 35.8907 150.073 35.8657 147.259 35.8631L147.023 35.8629C145.131 35.7153 144.209 35.2224 143.596 34.0978C143.136 33.2192 143.187 31.9464 143.136 30.7251C143.085 28.4662 143.136 25.541 143.136 25.541C143.136 21.9819 144.414 20.4856 146.92 20.52H169.012V17.0888C168.994 16.1955 168.278 15.4689 167.376 15.4247H144.364V10.3149L167.16 10.3154ZM36.1035 10.3235C43.5705 10.277 44.2342 10.8684 45.5646 12.3454C46.7919 13.7481 46.5873 17.4053 46.5873 20.1509V35.8714H38.5066V16.9816C38.5152 16.5783 38.355 16.1893 38.0661 15.9052C37.7757 15.6211 37.3809 15.4668 36.9732 15.4778H19.4328V35.8754L11.4552 35.8857V10.3235H36.1035ZM116.85 0.079344V35.879H108.874V0.079344H116.85ZM57.991 0V10.3427L67.4506 10.3285V15.2686H57.991V28.7801C57.991 29.6394 58.1955 30.3375 59.1153 30.5999C60.1896 30.9112 67.2976 30.7515 67.2976 30.7515V35.875L60.3427 35.8639C54.9226 35.8639 53.8999 35.9443 52.621 35.3164C50.883 34.4703 49.9618 32.69 49.9618 29.9861V0H57.991ZM78.8042 10.3406C79.674 10.3406 98.3901 10.3128 99.1569 10.3406C101.407 10.4206 102.787 10.6566 103.657 11.482C104.68 12.4566 105.498 13.6915 105.498 16.4434L105.447 25.688H78.7012L78.7527 29.2592C78.7327 29.6585 78.8801 30.0482 79.1618 30.3356C79.4422 30.623 79.8313 30.7823 80.2361 30.7757H104.219V35.8609L81.2074 35.8714C75.8375 35.8714 74.201 35.5337 73.4343 35.2022C71.6963 34.4202 70.775 32.6652 70.7235 29.9861V16.4434C70.7235 14.0332 71.6448 12.4566 72.719 11.6771C73.5373 11.0271 74.304 10.3406 78.8042 10.3406ZM128.305 0.079344V35.8629H120.278V0.079344H128.305ZM139.709 10.3473V35.8476H131.731V10.3473H139.709ZM169.064 25.6713L152.596 25.682C151.827 25.7154 151.207 26.32 151.164 27.0806V29.5004C151.224 30.2568 151.881 30.83 152.648 30.795L167.477 30.7813C167.892 30.7895 168.293 30.6351 168.592 30.3506C168.889 30.0662 169.059 29.6754 169.064 29.2658V25.6713ZM95.884 15.406L80.2361 15.4233C79.8213 15.426 79.4251 15.5932 79.1375 15.8872C78.8486 16.1813 78.6912 16.5777 78.7012 16.9872V20.5114L97.4689 20.5528V16.9933C97.4675 16.1251 96.7623 15.4185 95.884 15.406ZM8.02919 0.067248V5.19077H0.0514967V0.067248H8.02919ZM139.709 0.065232V5.18875H131.731V0.065232H139.709Z" fill="white"/>
</mask>
<g mask="url(#mask0_14097_5086)">
<path fill-rule="evenodd" clip-rule="evenodd" d="M-7.15234 35.9999H222.451V-7.20007H-7.15234V35.9999Z" fill="#45D6AD"/>
</g>
</svg>
