<svg width="18" height="18" viewBox="0 0 18 18" fill="none" xmlns="http://www.w3.org/2000/svg">
<path fill-rule="evenodd" clip-rule="evenodd" d="M8 17.286C8 17.6805 8.3198 18.0003 8.71429 18.0003C9.10878 18.0003 9.42857 17.6805 9.42857 17.286V9.42885H17.286C17.6805 9.42885 18.0003 9.10905 18.0003 8.71456C18.0003 8.32008 17.6805 8.00028 17.286 8.00028H9.42857V0.714286C9.42857 0.319797 9.10878 0 8.71429 0C8.3198 0 8 0.319794 8 0.714283V8.00028H0.714286C0.319797 8.00028 0 8.32008 0 8.71456C0 9.10905 0.319794 9.42885 0.714283 9.42885H8V17.286Z" fill="#47D6AD"/>
</svg>
